<svg width="197" height="38" viewBox="0 0 197 38" fill="none" xmlns="http://www.w3.org/2000/svg">
<mask id="mask0_401_1244" style="mask-type:alpha" maskUnits="userSpaceOnUse" x="0" y="4" width="28" height="30">
<path d="M8.89428 30.3647C8.89428 32.366 7.27197 33.9883 5.27075 33.9883C3.26953 33.9883 1.64722 32.366 1.64722 30.3647C1.64722 28.3635 3.26953 26.7412 5.27075 26.7412C7.27197 26.7412 8.89428 28.3635 8.89428 30.3647Z" fill="#C4C4C4"/>
<path d="M26.3533 30.3647C26.3533 32.366 24.731 33.9883 22.7297 33.9883C20.7285 33.9883 19.1062 32.366 19.1062 30.3647C19.1062 28.3635 20.7285 26.7412 22.7297 26.7412C24.731 26.7412 26.3533 28.3635 26.3533 30.3647Z" fill="#C4C4C4"/>
<path fill-rule="evenodd" clip-rule="evenodd" d="M25.1913 27.7058C25.4382 27.9345 25.4094 28.3209 25.1508 28.5363C23.7802 29.6779 22.0174 30.3647 20.0941 30.3647H19.7649C19.401 30.3647 19.0998 30.0671 19.1652 29.7091C19.4737 28.0209 20.9522 26.7412 22.7296 26.7412C23.68 26.7412 24.545 27.1071 25.1913 27.7058ZM27.0987 26.1282C26.8986 26.5093 26.3844 26.543 26.0504 26.2717C25.144 25.5354 23.9883 25.0942 22.7296 25.0942C20.0414 25.0942 17.8233 27.1066 17.4996 29.7072C17.4547 30.0682 17.164 30.3647 16.8002 30.3647H11.2C10.8361 30.3647 10.5455 30.0682 10.5006 29.7072C10.1769 27.1066 7.95876 25.0942 5.27059 25.0942C4.0118 25.0942 2.85608 25.5354 1.94969 26.2718C1.61563 26.5431 1.10145 26.5094 0.901402 26.1283C0.325709 25.0317 0 23.7833 0 22.4588V20.8116C0 20.4478 0.294965 20.1528 0.658823 20.1528H27.3412C27.705 20.1528 28 20.4478 28 20.8116V22.4588C28 23.7832 27.6743 25.0316 27.0987 26.1282ZM28 17.8469C28 18.2108 27.705 18.5057 27.3412 18.5057H0.658824C0.294965 18.5057 0 18.2108 0 17.8469V13.894C0 13.5302 0.294965 13.2352 0.658823 13.2352H27.3412C27.705 13.2352 28 13.5302 28 13.894V17.8469ZM7.90588 4.01172C3.883 4.01172 0.561907 7.0164 0.0643695 10.904C0.0168356 11.2754 0.318678 11.5881 0.693122 11.5881H27.3069C27.6813 11.5881 27.9832 11.2754 27.9356 10.904C27.4381 7.0164 24.117 4.01172 20.0941 4.01172H7.90588ZM5.27059 26.7412C7.04795 26.7412 8.52644 28.0209 8.83496 29.7091C8.90037 30.0671 8.59914 30.3647 8.23528 30.3647H7.90588C5.98268 30.3647 4.21987 29.6779 2.84928 28.5364C2.59074 28.321 2.56193 27.9345 2.80878 27.7059C3.45509 27.1072 4.3201 26.7412 5.27059 26.7412Z" fill="#C4C4C4"/>
</mask>
<g mask="url(#mask0_401_1244)">
<rect x="-1.64722" y="1.70605" width="33.6" height="10.8706" fill="url(#paint0_linear_401_1244)"/>
<rect x="-1.64722" y="19.4941" width="33.6" height="16.4706" fill="#FFA833"/>
<rect x="-1.64722" y="12.5767" width="33.6" height="7.24706" rx="3.62353" fill="#F17228"/>
<rect x="-23.0586" y="26.7412" width="31.9529" height="7.24706" fill="#F58D00"/>
<rect x="19.1062" y="26.7412" width="31.9529" height="7.24706" fill="#F58D00"/>
<ellipse cx="8.11249" cy="6.82316" rx="1" ry="0.5" transform="rotate(-20.8548 8.11249 6.82316)" fill="white"/>
<ellipse cx="14" cy="6.5" rx="1" ry="0.5" fill="white"/>
<ellipse cx="19.1176" cy="6.91225" rx="1" ry="0.5" transform="rotate(28.1155 19.1176 6.91225)" fill="white"/>
</g>
<path d="M42.2999 30.6167V18.7637H40.2466V15.3727L42.2999 15.2172V14.3772C42.2999 13.5683 42.3932 12.8009 42.5799 12.075C42.7873 11.3491 43.1192 10.7165 43.5754 10.1773C44.0317 9.63806 44.6228 9.21288 45.3487 8.90178C46.0746 8.59068 46.9561 8.43513 47.9931 8.43513C48.636 8.43513 49.2168 8.49735 49.7353 8.62179C50.2745 8.74623 50.7204 8.87067 51.073 8.99511L50.233 12.355C49.6523 12.1476 49.1234 12.0439 48.6464 12.0439C48.0864 12.0439 47.6509 12.2202 47.3398 12.5728C47.0287 12.9046 46.8731 13.4646 46.8731 14.2527V15.186H49.6419V18.7637H46.8731V30.6167H42.2999ZM57.6701 30.99C56.6953 30.99 55.7516 30.8137 54.839 30.4611C53.9265 30.0878 53.1176 29.559 52.4124 28.8745C51.728 28.1901 51.1784 27.3501 50.7636 26.3546C50.3488 25.3383 50.1414 24.1873 50.1414 22.9014C50.1414 21.6155 50.3488 20.4748 50.7636 19.4792C51.1784 18.463 51.728 17.6126 52.4124 16.9282C53.1176 16.2438 53.9265 15.7253 54.839 15.3727C55.7516 14.9994 56.6953 14.8127 57.6701 14.8127C58.6448 14.8127 59.5781 14.9994 60.47 15.3727C61.3825 15.7253 62.181 16.2438 62.8655 16.9282C63.5706 17.6126 64.1306 18.463 64.5454 19.4792C64.9602 20.4748 65.1676 21.6155 65.1676 22.9014C65.1676 24.1873 64.9602 25.3383 64.5454 26.3546C64.1306 27.3501 63.5706 28.1901 62.8655 28.8745C62.181 29.559 61.3825 30.0878 60.47 30.4611C59.5781 30.8137 58.6448 30.99 57.6701 30.99ZM57.6701 27.2879C58.6034 27.2879 59.3085 26.8938 59.7855 26.1057C60.2626 25.3176 60.5011 24.2495 60.5011 22.9014C60.5011 21.5533 60.2626 20.4851 59.7855 19.697C59.3085 18.9089 58.6034 18.5148 57.6701 18.5148C56.716 18.5148 56.0005 18.9089 55.5235 19.697C55.0672 20.4851 54.839 21.5533 54.839 22.9014C54.839 24.2495 55.0672 25.3176 55.5235 26.1057C56.0005 26.8938 56.716 27.2879 57.6701 27.2879ZM74.1487 30.99C73.174 30.99 72.2303 30.8137 71.3177 30.4611C70.4051 30.0878 69.5963 29.559 68.8911 28.8745C68.2067 28.1901 67.6571 27.3501 67.2423 26.3546C66.8275 25.3383 66.6201 24.1873 66.6201 22.9014C66.6201 21.6155 66.8275 20.4748 67.2423 19.4792C67.6571 18.463 68.2067 17.6126 68.8911 16.9282C69.5963 16.2438 70.4051 15.7253 71.3177 15.3727C72.2303 14.9994 73.174 14.8127 74.1487 14.8127C75.1235 14.8127 76.0568 14.9994 76.9487 15.3727C77.8612 15.7253 78.6597 16.2438 79.3441 16.9282C80.0493 17.6126 80.6093 18.463 81.0241 19.4792C81.4389 20.4748 81.6463 21.6155 81.6463 22.9014C81.6463 24.1873 81.4389 25.3383 81.0241 26.3546C80.6093 27.3501 80.0493 28.1901 79.3441 28.8745C78.6597 29.559 77.8612 30.0878 76.9487 30.4611C76.0568 30.8137 75.1235 30.99 74.1487 30.99ZM74.1487 27.2879C75.082 27.2879 75.7872 26.8938 76.2642 26.1057C76.7413 25.3176 76.9798 24.2495 76.9798 22.9014C76.9798 21.5533 76.7413 20.4851 76.2642 19.697C75.7872 18.9089 75.082 18.5148 74.1487 18.5148C73.1947 18.5148 72.4792 18.9089 72.0021 19.697C71.5459 20.4851 71.3177 21.5533 71.3177 22.9014C71.3177 24.2495 71.5459 25.3176 72.0021 26.1057C72.4792 26.8938 73.1947 27.2879 74.1487 27.2879ZM89.5075 30.99C88.5534 30.99 87.6823 30.8034 86.8942 30.43C86.1268 30.0567 85.4631 29.5278 84.9031 28.8434C84.3639 28.1383 83.9387 27.2879 83.6276 26.2924C83.3373 25.2969 83.1921 24.1665 83.1921 22.9014C83.1921 21.6362 83.3684 20.5059 83.721 19.5104C84.0943 18.5148 84.5713 17.6749 85.152 16.9904C85.7535 16.2853 86.4379 15.746 87.2053 15.3727C87.9934 14.9994 88.7919 14.8127 89.6008 14.8127C90.4719 14.8127 91.1874 14.9579 91.7474 15.2483C92.3074 15.5386 92.857 15.9327 93.3962 16.4304L93.2096 14.0661V8.80845H97.7828V30.6167H94.0495L93.7384 29.0923H93.614C93.0748 29.6315 92.4422 30.0878 91.7163 30.4611C90.9904 30.8137 90.2541 30.99 89.5075 30.99ZM90.6896 27.2568C91.1874 27.2568 91.6333 27.1531 92.0274 26.9457C92.4422 26.7383 92.8362 26.3753 93.2096 25.8568V19.5415C92.7948 19.1681 92.3696 18.9089 91.934 18.7637C91.4985 18.6185 91.0733 18.5459 90.6585 18.5459C89.9326 18.5459 89.2897 18.8985 88.7297 19.6037C88.1697 20.2881 87.8897 21.3666 87.8897 22.8392C87.8897 24.3739 88.1282 25.4939 88.6053 26.1991C89.103 26.9042 89.7978 27.2568 90.6896 27.2568Z" fill="#F17228"/>
<path d="M104.911 30.6167L101.053 15.186H105.595L107.088 22.3414C107.213 23.1088 107.327 23.8658 107.431 24.6124C107.534 25.3591 107.648 26.1265 107.773 26.9146H107.897C108.042 26.1265 108.177 25.3487 108.302 24.5813C108.447 23.8139 108.613 23.0673 108.799 22.3414L110.511 15.186H114.462L116.204 22.3414C116.39 23.1088 116.556 23.8658 116.701 24.6124C116.867 25.3591 117.023 26.1265 117.168 26.9146H117.293C117.438 26.1265 117.552 25.3591 117.635 24.6124C117.738 23.8658 117.863 23.1088 118.008 22.3414L119.47 15.186H123.701L119.999 30.6167H114.648L113.248 24.4569C113.103 23.731 112.958 23.0051 112.813 22.2792C112.688 21.5533 112.553 20.7755 112.408 19.9459H112.284C112.139 20.7755 112.004 21.5533 111.879 22.2792C111.776 23.0051 111.651 23.731 111.506 24.4569L110.137 30.6167H104.911ZM129.444 30.99C128.034 30.99 126.914 30.5441 126.084 29.6523C125.255 28.7397 124.84 27.6301 124.84 26.3235C124.84 24.7058 125.524 23.4406 126.893 22.528C128.262 21.6155 130.471 21.0036 133.52 20.6925C133.478 20.0081 133.271 19.4689 132.897 19.0748C132.545 18.66 131.943 18.4526 131.093 18.4526C130.45 18.4526 129.797 18.5771 129.133 18.8259C128.469 19.0748 127.764 19.417 127.018 19.8526L125.369 16.8349C126.344 16.2334 127.381 15.746 128.48 15.3727C129.6 14.9994 130.761 14.8127 131.964 14.8127C133.934 14.8127 135.449 15.3831 136.506 16.5238C137.564 17.6645 138.093 19.417 138.093 21.7814V30.6167H134.36L134.049 29.0301H133.924C133.281 29.6108 132.586 30.0878 131.84 30.4611C131.114 30.8137 130.315 30.99 129.444 30.99ZM131 27.4435C131.518 27.4435 131.964 27.3294 132.338 27.1012C132.732 26.8524 133.126 26.5309 133.52 26.1368V23.4302C131.902 23.6376 130.782 23.9695 130.16 24.4258C129.538 24.8613 129.226 25.3798 129.226 25.9813C129.226 26.479 129.382 26.8524 129.693 27.1012C130.025 27.3294 130.461 27.4435 131 27.4435ZM148.786 30.9221C147.241 30.9221 145.833 30.6167 144.56 30.0058C143.305 29.3779 142.303 28.4362 141.557 27.1804C140.81 25.9247 140.437 24.3551 140.437 22.4715C140.437 21.08 140.657 19.8497 141.099 18.7807C141.54 17.6947 142.142 16.7783 142.906 16.0317C143.669 15.285 144.543 14.725 145.528 14.3517C146.529 13.9614 147.581 13.7663 148.684 13.7663C149.906 13.7663 150.966 13.9869 151.866 14.4281C152.765 14.8523 153.503 15.3614 154.08 15.9553L151.789 18.7552C151.382 18.3989 150.949 18.1104 150.491 17.8898C150.05 17.6522 149.498 17.5334 148.837 17.5334C147.717 17.5334 146.783 17.9577 146.037 18.8061C145.29 19.6376 144.917 20.8085 144.917 22.3188C144.917 23.863 145.265 25.0593 145.96 25.9077C146.673 26.7392 147.768 27.155 149.244 27.155C149.481 27.155 149.711 27.1295 149.931 27.0786C150.169 27.0277 150.364 26.9514 150.517 26.8495V24.5587H148.073V20.9952H154.386V28.8858C153.809 29.4458 153.02 29.9294 152.018 30.3367C151.034 30.727 149.957 30.9221 148.786 30.9221ZM163.912 30.99C162.605 30.99 161.371 30.6789 160.21 30.0567C159.069 29.4138 158.146 28.4908 157.441 27.2879C156.736 26.0642 156.383 24.6021 156.383 22.9014C156.383 21.1799 156.736 19.7178 157.441 18.5148C158.146 17.3119 159.069 16.3993 160.21 15.7771C161.371 15.1342 162.605 14.8127 163.912 14.8127C165.219 14.8127 166.442 15.1342 167.583 15.7771C168.724 16.3993 169.647 17.3119 170.352 18.5148C171.057 19.7178 171.409 21.1799 171.409 22.9014C171.409 24.6021 171.057 26.0642 170.352 27.2879C169.647 28.4908 168.724 29.4138 167.583 30.0567C166.442 30.6789 165.219 30.99 163.912 30.99ZM163.912 27.2879C164.845 27.2879 165.55 26.8938 166.027 26.1057C166.504 25.2969 166.743 24.2287 166.743 22.9014C166.743 21.5533 166.504 20.4851 166.027 19.697C165.55 18.9089 164.845 18.5148 163.912 18.5148C162.958 18.5148 162.242 18.9089 161.765 19.697C161.309 20.4851 161.081 21.5533 161.081 22.9014C161.081 24.2287 161.309 25.2969 161.765 26.1057C162.242 26.8938 162.958 27.2879 163.912 27.2879ZM173.764 30.6167V15.186H177.497L177.808 17.146H177.933C178.597 16.5238 179.322 15.9845 180.111 15.5283C180.919 15.0512 181.842 14.8127 182.879 14.8127C184.559 14.8127 185.773 15.3727 186.519 16.4927C187.287 17.5919 187.67 19.1059 187.67 21.0348V30.6167H183.097V21.6259C183.097 20.5059 182.942 19.7385 182.631 19.3237C182.34 18.9089 181.863 18.7015 181.199 18.7015C180.619 18.7015 180.121 18.8363 179.706 19.1059C179.291 19.3548 178.835 19.7178 178.337 20.1948V30.6167H173.764Z" fill="#FFB30E"/>
<defs>
<linearGradient id="paint0_linear_401_1244" x1="14.9999" y1="3.5" x2="14.9999" y2="21" gradientUnits="userSpaceOnUse">
<stop stop-color="#FFD16D"/>
<stop offset="1" stop-color="#FF7A00"/>
</linearGradient>
</defs>
</svg>
